<svg width="250" height="251" viewBox="0 0 250 251" fill="none" xmlns="http://www.w3.org/2000/svg">
<g clip-path="url(#clip0_5998_674)">
<g filter="url(#filter0_d_5998_674)">
<path d="M114.834 20.3265L40.8382 33.3735C35.6371 34.2905 32.1639 39.2503 33.0805 44.4515L49.4411 137.283C50.3577 142.485 55.3171 145.958 60.5182 145.04L134.514 131.994C139.715 131.077 143.188 126.117 142.271 120.916L125.911 28.0836C124.994 22.8824 120.035 19.4095 114.834 20.3265Z" fill="#FFCE00"/>
<path d="M114.834 20.3265L40.8382 33.3735C35.6371 34.2905 32.1639 39.2503 33.0805 44.4515L49.4411 137.283C50.3577 142.485 55.3171 145.958 60.5182 145.04L134.514 131.994C139.715 131.077 143.188 126.117 142.271 120.916L125.911 28.0836C124.994 22.8824 120.035 19.4095 114.834 20.3265Z" stroke="black" stroke-width="2.73224" stroke-miterlimit="10"/>
</g>
<path d="M59.7357 135.422L51.6264 146.999" stroke="black" stroke-width="2.73224" stroke-miterlimit="10"/>
<path d="M113.858 31.232L46.2402 43.1545C44.7542 43.4165 43.7618 44.8336 44.0237 46.3196L59.2055 132.463C59.4674 133.949 60.8844 134.941 62.3704 134.679L129.989 122.757C131.475 122.495 132.467 121.078 132.205 119.592L117.023 33.4483C116.761 31.9623 115.344 30.97 113.858 31.232Z" fill="white" stroke="black" stroke-width="2.73224" stroke-miterlimit="10"/>
<path d="M132.734 122.548L144.315 130.651" stroke="black" stroke-width="2.73224" stroke-miterlimit="10"/>
<path d="M69.6723 76.0174C76.4627 76.0174 81.9674 70.5127 81.9674 63.7223C81.9674 56.9319 76.4627 51.4272 69.6723 51.4272C62.8819 51.4272 57.3772 56.9319 57.3772 63.7223C57.3772 70.5127 62.8819 76.0174 69.6723 76.0174Z" fill="#FD6767" stroke="black" stroke-width="2.73224" stroke-miterlimit="10"/>
<path d="M55.9657 111.287C55.5888 109.148 56.0767 106.946 57.3223 105.166L66.1546 92.5434C68.7507 88.8334 73.8633 87.9312 77.5724 90.5288L78.2123 90.9769C81.921 93.5742 87.0331 92.6725 89.6294 88.9631L100.832 72.9579C103.429 69.248 108.542 68.3467 112.251 70.9452L122.248 77.9502C124.028 79.197 125.24 81.0993 125.617 83.2391L130.665 111.853C131.452 116.312 128.475 120.563 124.017 121.35L67.8098 131.265C63.351 132.052 59.0989 129.074 58.3134 124.615L55.9657 111.287Z" fill="#E0E0E2" stroke="black" stroke-width="2.73224" stroke-miterlimit="10"/>
<path d="M122.946 131.729C124.053 130.581 123.945 128.733 122.712 127.721L100.039 109.119C99.0603 108.316 97.6586 108.291 96.6514 109.057L91.2547 113.163C86.7961 116.555 80.8357 117.227 75.7336 114.913L67.4509 111.156L58.7432 107.75L39.6175 97.4946L39.1375 97.2764C30.5466 93.3715 20.4053 95.6935 14.3694 102.948L39.6175 122.768L92.1454 166.415L107.281 147.862C107.297 147.843 107.326 147.84 107.345 147.856C107.363 147.872 107.39 147.871 107.407 147.854L122.946 131.729Z" fill="#43BFFF"/>
<path d="M92.1454 166.415L39.6175 122.768L14.3694 102.948L10.5939 107.653C9.64792 108.832 9.83907 110.555 11.0205 111.498L84.8153 170.405C85.9127 171.281 87.4955 171.182 88.4759 170.177L92.1454 166.415Z" fill="#43BFFF"/>
<path d="M14.3694 102.948V102.948C20.4053 95.6935 30.5466 93.3715 39.1375 97.2764L39.6175 97.4946M14.3694 102.948L10.5939 107.653C9.64792 108.832 9.83907 110.555 11.0205 111.498L84.8153 170.405C85.9127 171.281 87.4955 171.182 88.4759 170.177L92.1454 166.415M14.3694 102.948L39.6175 122.768M92.1454 166.415L107.281 147.862C107.297 147.843 107.326 147.84 107.345 147.856V147.856C107.363 147.872 107.39 147.871 107.407 147.854L122.946 131.729C124.053 130.581 123.945 128.733 122.712 127.721L100.039 109.119C99.0603 108.316 97.6586 108.291 96.6514 109.057L90.1915 113.972C86.3878 116.865 81.3029 117.439 76.9503 115.464L75.7336 114.913M92.1454 166.415L39.6175 122.768M39.6175 122.768L39.6175 97.4946M39.6175 97.4946L58.7432 107.75M67.4509 111.156L67.4509 124.817M67.4509 111.156L58.7432 107.75M67.4509 111.156L75.7336 114.913M58.7432 107.75L58.7432 118.669M75.7336 114.913L75.7336 129.598M75.7336 114.913L75.7336 104.368C75.7336 102.081 77.5878 100.227 79.875 100.227V100.227C82.1623 100.227 84.0164 102.081 84.0164 104.368L84.0164 118.817C84.0164 122.131 86.7027 124.817 90.0164 124.817L90.847 124.817" stroke="black" stroke-width="2.73224" stroke-miterlimit="10"/>
<path d="M185.975 13.7229L228.784 34.7611" stroke="#9D9D9D" stroke-width="1.36612" stroke-miterlimit="10"/>
<path d="M172.761 20.1104L231.76 49.1134" stroke="#9D9D9D" stroke-width="1.36612" stroke-miterlimit="10"/>
<path d="M163.277 28.3394L231.104 61.6796" stroke="#9D9D9D" stroke-width="1.36612" stroke-miterlimit="10"/>
<path d="M158.154 38.7134L225.981 72.0537" stroke="#9D9D9D" stroke-width="1.36612" stroke-miterlimit="10"/>
<path d="M156.071 50.5759L217.826 80.9304" stroke="#9D9D9D" stroke-width="1.36612" stroke-miterlimit="10"/>
<path d="M160.054 65.425L204.604 87.3183" stroke="#9D9D9D" stroke-width="1.36612" stroke-miterlimit="10"/>
<path d="M224.782 28.3696L195.705 87.2488" stroke="#9D9D9D" stroke-width="1.36612" stroke-miterlimit="10"/>
<path d="M216.536 18.908L183.11 86.588" stroke="#9D9D9D" stroke-width="1.36612" stroke-miterlimit="10"/>
<path d="M206.147 13.7981L172.715 81.4858" stroke="#9D9D9D" stroke-width="1.36612" stroke-miterlimit="10"/>
<path d="M194.258 11.7218L163.819 73.3426" stroke="#9D9D9D" stroke-width="1.36612" stroke-miterlimit="10"/>
<g filter="url(#filter1_d_5998_674)">
<path d="M229.47 67.5461C240.641 44.9188 233.949 18.8392 214.515 9.28158C195.081 -0.268688 170.269 10.3233 159.098 32.9506C149.396 52.6001 153.169 74.8521 167.059 86.626C168.068 87.4815 168.425 88.9089 167.839 90.0952L146.234 133.835C145.565 135.189 146.122 136.83 147.478 137.497L155.14 141.264C156.492 141.929 158.128 141.373 158.795 140.022L180.638 95.8005C181.197 94.669 182.457 94.0791 183.703 94.2793C201.068 97.0696 220.083 86.5534 229.47 67.5461ZM178.283 82.6465C163.473 75.3646 158.64 54.9608 167.475 37.0745C176.31 19.1809 195.482 10.5827 210.285 17.8575C225.087 25.1323 229.928 45.5432 221.093 63.4295C212.257 81.3158 193.093 89.9211 178.283 82.6465Z" fill="#E0E0E2"/>
<path d="M177.681 83.8727L177.68 83.8725C161.984 76.1548 157.194 54.8043 166.25 36.4697L177.681 83.8727ZM177.681 83.8727C193.374 91.5811 213.261 82.3688 222.317 64.0346C231.374 45.6999 226.576 24.342 210.887 16.6315C195.202 8.92269 175.307 18.1275 166.25 36.4695L177.681 83.8727ZM160.323 33.5554L160.323 33.5553C171.25 11.4222 195.323 1.37263 213.912 10.5075C232.499 19.6483 239.172 44.8083 228.245 66.9413C219.077 85.5062 200.594 95.6099 183.919 92.9304C182.132 92.6433 180.259 93.4824 179.413 95.1955L157.57 139.417C157.237 140.093 156.419 140.371 155.743 140.038L148.081 136.271C147.403 135.937 147.124 135.117 147.459 134.44L169.064 90.7003C169.952 88.903 169.387 86.8088 167.942 85.5838C154.618 74.2895 150.844 52.7522 160.323 33.5554Z" stroke="black" stroke-width="2.73224"/>
</g>
<g filter="url(#filter2_dd_5998_674)">
<path d="M125.683 103.34H155.738C178.372 103.34 196.721 121.689 196.721 144.323H125.683V103.34Z" fill="#31D2AF"/>
<path d="M127.049 104.706H155.738C177.161 104.706 194.612 121.71 195.332 142.957H127.049V104.706Z" stroke="black" stroke-width="2.73224"/>
</g>
<path opacity="0.8" d="M46.4481 199.954H229.508C233.281 199.954 236.339 203.012 236.339 206.784C236.339 210.557 233.281 213.615 229.508 213.615H60.1093C52.5644 213.615 46.4481 207.498 46.4481 199.954Z" fill="black" fill-opacity="0.3"/>
<g filter="url(#filter3_d_5998_674)">
<path d="M47.983 141.21H196.552L224.611 169.333C225.676 170.4 225.676 172.13 224.611 173.197L221.651 176.164C220.587 177.231 218.861 177.231 217.796 176.164L196.637 154.872L196.71 201.309C196.716 205.086 193.657 208.15 189.88 208.15H54.6607C50.8821 208.15 47.8213 205.082 47.8301 201.304L47.9382 154.872L26.7392 176.164C25.6746 177.231 23.9486 177.231 22.884 176.164L19.9241 173.197C18.8595 172.13 18.8595 170.4 19.9241 169.333L47.983 141.21Z" fill="#FFCE00"/>
<path d="M47.983 141.21H196.552M47.983 141.21L19.9241 169.333C18.8595 170.4 18.8595 172.13 19.9241 173.197L22.884 176.164C23.9486 177.231 25.6746 177.231 26.7392 176.164L47.9382 154.872M47.983 141.21L47.9382 154.872M196.552 141.21L224.611 169.333C225.676 170.4 225.676 172.13 224.611 173.197L221.651 176.164C220.587 177.231 218.861 177.231 217.796 176.164L196.637 154.872M196.552 141.21L196.637 154.872M47.9382 154.872L47.8301 201.304C47.8213 205.082 50.8821 208.15 54.6607 208.15H189.88C193.657 208.15 196.716 205.086 196.71 201.309L196.637 154.872" stroke="black" stroke-width="2.73224" stroke-miterlimit="10"/>
</g>
<path d="M162.75 176.431C164.901 182.971 161.263 190.002 154.682 192.025L131.683 199.092C125.229 201.076 118.384 197.484 116.348 191.046L94.6196 122.324C90.5311 109.393 98.0045 95.6539 111.082 92.0604C123.371 88.6833 136.149 95.5394 140.131 107.647L162.75 176.431Z" fill="#31D2AF" stroke="black" stroke-width="2.73224" stroke-miterlimit="10"/>
<path d="M159.829 164.81L112.903 178.362" stroke="black" stroke-width="1.36612" stroke-miterlimit="10"/>
<path d="M140.985 181.764L127.087 185.778" stroke="black" stroke-width="1.36612" stroke-miterlimit="10"/>
<path d="M129.126 189.483C131.442 189.593 133.408 187.805 133.518 185.489C133.628 183.172 131.84 181.206 129.524 181.096C127.209 180.986 125.242 182.775 125.132 185.091C125.023 187.407 126.811 189.374 129.126 189.483Z" fill="#31D2AF" stroke="black" stroke-width="1.36612" stroke-miterlimit="10"/>
</g>
<defs>
<filter id="filter0_d_5998_674" x="31.5674" y="18.8132" width="114.949" height="127.74" filterUnits="userSpaceOnUse" color-interpolation-filters="sRGB">
<feFlood flood-opacity="0" result="BackgroundImageFix"/>
<feColorMatrix in="SourceAlpha" type="matrix" values="0 0 0 0 0 0 0 0 0 0 0 0 0 0 0 0 0 0 127 0" result="hardAlpha"/>
<feOffset dx="2.73224"/>
<feColorMatrix type="matrix" values="0 0 0 0 0 0 0 0 0 0 0 0 0 0 0 0 0 0 1 0"/>
<feBlend mode="normal" in2="BackgroundImageFix" result="effect1_dropShadow_5998_674"/>
<feBlend mode="normal" in="SourceGraphic" in2="effect1_dropShadow_5998_674" result="shape"/>
</filter>
<filter id="filter1_d_5998_674" x="145.951" y="5.7688" width="91.6591" height="137.142" filterUnits="userSpaceOnUse" color-interpolation-filters="sRGB">
<feFlood flood-opacity="0" result="BackgroundImageFix"/>
<feColorMatrix in="SourceAlpha" type="matrix" values="0 0 0 0 0 0 0 0 0 0 0 0 0 0 0 0 0 0 127 0" result="hardAlpha"/>
<feOffset dx="2.73224" dy="1.36612"/>
<feColorMatrix type="matrix" values="0 0 0 0 0 0 0 0 0 0 0 0 0 0 0 0 0 0 1 0"/>
<feBlend mode="normal" in2="BackgroundImageFix" result="effect1_dropShadow_5998_674"/>
<feBlend mode="normal" in="SourceGraphic" in2="effect1_dropShadow_5998_674" result="shape"/>
</filter>
<filter id="filter2_dd_5998_674" x="122.951" y="103.34" width="76.5027" height="46.4481" filterUnits="userSpaceOnUse" color-interpolation-filters="sRGB">
<feFlood flood-opacity="0" result="BackgroundImageFix"/>
<feColorMatrix in="SourceAlpha" type="matrix" values="0 0 0 0 0 0 0 0 0 0 0 0 0 0 0 0 0 0 127 0" result="hardAlpha"/>
<feOffset dy="2.73224"/>
<feGaussianBlur stdDeviation="1.36612"/>
<feColorMatrix type="matrix" values="0 0 0 0 0 0 0 0 0 0 0 0 0 0 0 0 0 0 0.05 0"/>
<feBlend mode="normal" in2="BackgroundImageFix" result="effect1_dropShadow_5998_674"/>
<feColorMatrix in="SourceAlpha" type="matrix" values="0 0 0 0 0 0 0 0 0 0 0 0 0 0 0 0 0 0 127 0" result="hardAlpha"/>
<feOffset dy="1.36612"/>
<feGaussianBlur stdDeviation="0.68306"/>
<feColorMatrix type="matrix" values="0 0 0 0 0 0 0 0 0 0 0 0 0 0 0 0 0 0 0.14 0"/>
<feBlend mode="normal" in2="effect1_dropShadow_5998_674" result="effect2_dropShadow_5998_674"/>
<feBlend mode="normal" in="SourceGraphic" in2="effect2_dropShadow_5998_674" result="shape"/>
</filter>
<filter id="filter3_d_5998_674" x="17.7595" y="139.844" width="211.749" height="69.6721" filterUnits="userSpaceOnUse" color-interpolation-filters="sRGB">
<feFlood flood-opacity="0" result="BackgroundImageFix"/>
<feColorMatrix in="SourceAlpha" type="matrix" values="0 0 0 0 0 0 0 0 0 0 0 0 0 0 0 0 0 0 127 0" result="hardAlpha"/>
<feOffset dx="2.73224"/>
<feColorMatrix type="matrix" values="0 0 0 0 0 0 0 0 0 0 0 0 0 0 0 0 0 0 1 0"/>
<feBlend mode="normal" in2="BackgroundImageFix" result="effect1_dropShadow_5998_674"/>
<feBlend mode="normal" in="SourceGraphic" in2="effect1_dropShadow_5998_674" result="shape"/>
</filter>
<clipPath id="clip0_5998_674">
<rect width="250" height="250" fill="white" transform="translate(0 0.5)"/>
</clipPath>
</defs>
</svg>